<?xml version="1.0" encoding="utf-8"?>
<!-- Generator: Adobe Illustrator 24.0.1, SVG Export Plug-In . SVG Version: 6.00 Build 0)  -->
<svg version="1.1" id="Layer_1" xmlns="http://www.w3.org/2000/svg" xmlns:xlink="http://www.w3.org/1999/xlink" x="0px" y="0px"
	 viewBox="0 0 512 512" style="enable-background:new 0 0 512 512;" xml:space="preserve">
<style type="text/css">
	.st0{fill:#020202;}
	.st1{fill:#FFFFFF;}
</style>
<circle class="st0" cx="259.5" cy="246.5" r="229.4"/>
<circle class="st1" cx="259.5" cy="246.5" r="205.6"/>
<g>
	<g>
		<path d="M348.1,116.8c-1.5-3.9-4.8-6.7-8.7-7.5c-4.1-0.9-8.3,0.5-11.3,3.5l-28.4,28.4l-13.9-13.9L316,97.1
			c3.1-3.1,4.5-7.5,3.6-11.7c-0.9-4.1-3.8-7.5-7.8-9c-26.3-10.2-56.2-3.9-76.2,16c-10.5,10.5-17.4,23.8-19.9,38.4
			c-0.5,2.5-1,5.1-1.6,7.9c-3.2,16.3-7.1,36.6-18.7,48.2L91.8,290.5c-12.8,12.8-12.8,33.6,0,46.4c6.4,6.4,14.8,9.6,23.2,9.6
			c8.4,0,16.8-3.2,23.2-9.6l103.6-103.6c11.6-11.6,31.9-15.5,48.2-18.7c2.8-0.5,5.4-1.1,7.9-1.6c14.6-2.5,27.9-9.3,38.4-19.9
			c3.1-3.1,4-7.3,2.7-11.1C353.1,163.4,356.6,138.8,348.1,116.8L348.1,116.8z M335.6,120.3c0.5-0.5,1-0.7,1.5-0.6
			c0.4,0.1,0.7,0.4,0.9,0.9c6.9,17.7,4.5,37.4-6.1,52.8l-24.8-24.8L335.6,120.3z M328.7,185.5c-9,9-20.3,14.8-32.7,16.9
			c-0.1,0-0.2,0-0.2,0c-2.4,0.5-5.1,1-7.8,1.6c-17.7,3.5-39.8,7.7-53.7,21.6L130.6,329.3c-8.6,8.6-22.6,8.6-31.2,0
			c-8.6-8.6-8.6-22.6,0-31.2L203,194.4c13.9-13.9,18.2-36,21.6-53.7c0.5-2.8,1.1-5.4,1.6-7.8c0-0.1,0-0.2,0-0.2
			c2.1-12.4,7.9-23.7,16.9-32.7c11.6-11.6,27-17.7,42.8-17.7c7.4,0,14.8,1.3,21.9,4.1c0.6,0.3,1,0.7,1.2,1.2
			c0.1,0.6-0.1,1.3-0.7,1.9l-34,34c-2.1,2.1-2.1,5.5,0,7.6l54.4,54.4C328.8,185.4,328.8,185.4,328.7,185.5
			C328.8,185.5,328.8,185.5,328.7,185.5L328.7,185.5z"/>
		<path d="M266.8,138.6c-1-1-2.4-1.6-3.8-1.6s-2.8,0.6-3.8,1.6L244,153.8c-2.1,2.1-2.1,5.5,0,7.6l21.4,21.4c1,1,2.4,1.6,3.8,1.6
			s2.8-0.6,3.8-1.6l15.2-15.2c2.1-2.1,2.1-5.5,0-7.6L266.8,138.6z M269.3,171.5l-13.9-13.9l7.6-7.6l13.9,13.9L269.3,171.5z"/>
		<path d="M118.8,309.9c-2.1-2.1-5.5-2.1-7.6,0c-2.1,2.1-2.1,5.5,0,7.6c1,1,2.4,1.6,3.8,1.6s2.7-0.5,3.8-1.6
			C120.9,315.4,120.9,312,118.8,309.9L118.8,309.9z"/>
		<path d="M214.8,206.3l-86.5,86.5c-2.1,2.1-2.1,5.5,0,7.6c1,1,2.4,1.6,3.8,1.6c1.4,0,2.7-0.5,3.8-1.6l86.5-86.5
			c2.1-2.1,2.1-5.5,0-7.6C220.3,204.2,216.9,204.2,214.8,206.3L214.8,206.3z"/>
	</g>
</g>
<g>
	<path d="M388.5,299.9c-3.5,1.7-4.9,5.8-3.2,9.3c4.6,9.4,6.9,19.6,6.9,30.3c0,38.4-31.2,69.6-69.6,69.6s-69.6-31.2-69.6-69.6
		s31.2-69.6,69.6-69.6c15.9,0,30.8,5.2,43.2,15c3,2.4,7.4,1.9,9.8-1.1c2.4-3,1.9-7.4-1.1-9.8c-14.6-11.6-33.1-18-51.9-18
		c-46.1,0-83.5,37.5-83.5,83.5s37.5,83.5,83.5,83.5s83.5-37.5,83.5-83.5c0-12.8-2.8-25-8.3-36.3
		C396.1,299.7,391.9,298.3,388.5,299.9z"/>
	<path d="M322.5,283.8c-3.8,0-7,3.1-7,7v48.7c0,3.8,3.1,7,7,7h34.8c3.8,0,7-3.1,7-7c0-3.8-3.1-7-7-7h-27.8v-41.8
		C329.5,286.9,326.4,283.8,322.5,283.8z"/>
</g>
</svg>
