<?xml version="1.0" encoding="utf-8"?>
<!-- Generator: Adobe Illustrator 24.0.1, SVG Export Plug-In . SVG Version: 6.00 Build 0)  -->
<svg version="1.1" id="Layer_1" xmlns="http://www.w3.org/2000/svg" xmlns:xlink="http://www.w3.org/1999/xlink" x="0px" y="0px"
	 viewBox="0 0 1920 1080" style="enable-background:new 0 0 1920 1080;" xml:space="preserve">
<style type="text/css">
	.st0{fill:#070606;}
	.st1{fill:#FFFFFF;}
	.st2{fill:#84B5CB;}
	.st3{fill:#2980BA;}
	.st4{fill:#3B97D3;}
	.st5{fill:#9FC9D3;}
</style>
<circle class="st0" cx="968.8" cy="538.7" r="510.2"/>
<circle class="st1" cx="968.8" cy="538.7" r="440.9"/>
<g id="Page-1">
	<g id="_x30_29---Ice-Cubes">
		<path id="Shape" class="st2" d="M812.1,405.4l-17.5-36.6c-13.5-28.3-1.5-62.1,26.8-75.7l204.7-97.7c13.6-6.5,29.2-7.3,43.4-2.3
			c14.2,5,25.8,15.5,32.3,29.1l97.7,204.7c6.6,13.8,7.3,29.7,2.1,44.1c-5.3,14.4-16.1,26-30.1,32.3l-197,93.9L812.1,405.4z"/>
		<path id="Shape_1_" class="st1" d="M1078.8,290.8c-4.4,0-8.3-2.5-10.2-6.5l-18-37.8l-38.8,18.5c-5.5,2.2-11.9-0.2-14.5-5.6
			c-2.6-5.4-0.5-11.9,4.7-14.8l38.7-18.5c11.3-5.1,24.7-0.4,30.3,10.7l18,37.7c2.7,5.6,0.3,12.4-5.3,15.1
			C1082.2,290.4,1080.5,290.8,1078.8,290.8z"/>
		<circle id="Oval" class="st3" cx="1121.8" cy="677.6" r="170.1"/>
		<path id="Shape_2_" class="st4" d="M1121.8,859c-63.6-0.2-122.6-33.6-155.5-88.1c-3.2-5.4-1.5-12.3,3.9-15.6
			c5.4-3.2,12.3-1.5,15.6,3.9c36,60,106.9,89.3,174.7,72.4c67.8-17,116.6-76.3,120.1-146.1c3.5-69.8-39.1-133.7-104.9-157.4
			c-50.3-18.2-106.4-9.8-149.2,22.4c-5,3.8-12.1,2.8-15.9-2.2c-3.8-5-2.8-12.1,2.2-15.9c48.9-36.8,113-46.4,170.5-25.6
			c83,29.9,132.4,115.1,117.3,202C1285.5,795.7,1210,859.1,1121.8,859L1121.8,859z"/>
		<path id="Shape_3_" class="st1" d="M1221,690.7l-36.6,9.8l-39.8-23l39.8-23l36.6,9.8c1,0.3,2,0.4,2.9,0.4c5.7,0,10.5-4.2,11.2-9.9
			c0.7-5.6-2.8-11-8.3-12.4l-30.2-8.1l8.1-30.2c1.6-6-2-12.2-8-13.8c-6-1.6-12.2,1.9-13.9,8l-9.8,36.6l-39.9,23v-46l26.8-26.8
			c4.3-4.5,4.2-11.5-0.1-15.9c-4.4-4.4-11.4-4.4-15.9-0.1l-22.1,22.1l-22.1-22.1c-4.5-4.3-11.5-4.2-15.9,0.1s-4.4,11.4-0.1,15.9
			l26.8,26.8v46l-39.8-23l-9.8-36.6c-1.6-6-7.8-9.6-13.9-8s-9.6,7.8-8,13.8l8.1,30.2l-30.2,8.1c-5.5,1.5-9.1,6.8-8.3,12.4
			s5.6,9.9,11.2,9.9c1,0,2-0.1,2.9-0.4l36.6-9.8l39.8,23l-39.8,23l-36.6-9.8c-4-1.2-8.2-0.1-11.2,2.8c-2.9,2.9-4.1,7.1-3,11.1
			c1.1,4,4.3,7,8.3,8l30.2,8.1l-8.1,30.2c-0.8,2.9-0.4,6,1.1,8.6s4,4.5,6.9,5.3c1,0.3,2,0.4,2.9,0.4c5.1,0,9.6-3.5,10.9-8.4
			l9.8-36.6l39.8-23v46l-26.8,26.8c-4.3,4.5-4.2,11.5,0.1,15.9c4.4,4.4,11.4,4.4,15.9,0.1l22.1-22.1l22.1,22.1
			c4.5,4.3,11.5,4.2,15.9-0.1c4.4-4.4,4.4-11.4,0.1-15.9l-26.8-26.8v-46l39.8,23l9.8,36.6c1.3,5,5.8,8.4,10.9,8.4c1,0,2-0.1,2.9-0.4
			c6-1.6,9.6-7.8,8-13.9l-8-30.2l30.2-8.1c4-1,7.2-4,8.3-8c1.1-4,0-8.2-3-11.1C1229.2,690.6,1225,689.6,1221,690.7L1221,690.7z"/>
		<path id="Rectangle-path" class="st5" d="M690.8,405.4h226.8c31.3,0,56.7,25.4,56.7,56.7v226.8c0,31.3-25.4,56.7-56.7,56.7H690.8
			c-31.3,0-56.7-25.4-56.7-56.7V462.1C634.1,430.7,659.5,405.4,690.8,405.4z"/>
		<path id="Shape_4_" class="st2" d="M917.7,711.6h-34c-6.3,0-11.3-5.1-11.3-11.3c0-6.3,5.1-11.3,11.3-11.3h34v-34
			c0-6.3,5.1-11.3,11.3-11.3c6.3,0,11.3,5.1,11.3,11.3v34C940.3,701.4,930.2,711.6,917.7,711.6z"/>
		<g>
			<path id="Shape_5_" class="st1" d="M679.5,518.8c-4.6,0-8.7-2.8-10.5-7c-1.8-4.2-0.8-9.1,2.5-12.4l56.7-56.7
				c4.5-4.3,11.5-4.2,15.9,0.1c4.4,4.4,4.4,11.4,0.1,15.9l-56.7,56.7C685.4,517.6,682.5,518.8,679.5,518.8z"/>
			<path id="Shape_6_" class="st1" d="M679.5,586.8c-4.6,0-8.7-2.8-10.5-7c-1.8-4.2-0.8-9.1,2.5-12.4l124.8-124.8
				c4.5-4.3,11.5-4.2,15.9,0.1c4.4,4.4,4.4,11.4,0.1,15.9L687.5,583.5C685.4,585.6,682.5,586.8,679.5,586.8L679.5,586.8z"/>
		</g>
	</g>
</g>
</svg>
