<?xml version="1.0" encoding="utf-8"?>
<!-- Generator: Adobe Illustrator 24.0.1, SVG Export Plug-In . SVG Version: 6.00 Build 0)  -->
<svg version="1.1" id="Layer_1" xmlns="http://www.w3.org/2000/svg" xmlns:xlink="http://www.w3.org/1999/xlink" x="0px" y="0px"
	 viewBox="0 0 512 512" style="enable-background:new 0 0 512 512;" xml:space="preserve">
<g>
	<path d="M256,509c-66,0-128-25.7-174.7-72.3S9,328,9,262S34.7,134,81.3,87.3S190,15,256,15s128,25.7,174.7,72.3S503,196,503,262
		s-25.7,128-72.3,174.7S322,509,256,509L256,509z M256,45.9c-119.2,0-216.1,97-216.1,216.1s97,216.1,216.1,216.1
		s216.1-97,216.1-216.1S375.2,45.9,256,45.9z"/>
	<path d="M256,246.6c-21.3,0-38.6-17.3-38.6-38.6s17.3-38.6,38.6-38.6s38.6,17.3,38.6,38.6c0,8.5,6.9,15.4,15.4,15.4
		s15.4-6.9,15.4-15.4c0-33-23.1-60.7-54-67.7v-17.2c0-8.5-6.9-15.4-15.4-15.4c-8.5,0-15.4,6.9-15.4,15.4v17.2
		c-30.9,7-54,34.7-54,67.7c0,38.3,31.2,69.5,69.5,69.5c21.3,0,38.6,17.3,38.6,38.6c0,21.3-17.3,38.6-38.6,38.6s-38.6-17.3-38.6-38.6
		c0-8.5-6.9-15.4-15.4-15.4c-8.5,0-15.4,6.9-15.4,15.4c0,33,23.1,60.7,54,67.7v17.2c0,8.5,6.9,15.4,15.4,15.4
		c8.5,0,15.4-6.9,15.4-15.4v-17.2c30.9-7,54-34.7,54-67.7C325.5,277.7,294.3,246.6,256,246.6z"/>
</g>
</svg>
