<?xml version="1.0" encoding="utf-8"?>
<!-- Generator: Adobe Illustrator 24.0.1, SVG Export Plug-In . SVG Version: 6.00 Build 0)  -->
<svg version="1.1" id="Layer_1" xmlns="http://www.w3.org/2000/svg" xmlns:xlink="http://www.w3.org/1999/xlink" x="0px" y="0px"
	 viewBox="0 0 512 512" style="enable-background:new 0 0 512 512;" xml:space="preserve">
<style type="text/css">
	.st0{fill:#F90D0D;}
	.st1{fill:#FFFFFF;}
</style>
<circle class="st0" cx="259.5" cy="246.5" r="229.4"/>
<circle class="st1" cx="259.5" cy="246.5" r="205.6"/>
<g>
	<g>
		<path d="M390.2,154.3c-1.5-3.9-4.8-6.7-8.7-7.5c-4.1-0.9-8.3,0.5-11.3,3.5l-28.4,28.4l-13.9-13.9l30.2-30.2
			c3.1-3.1,4.5-7.5,3.6-11.7c-0.9-4.1-3.8-7.5-7.8-9c-26.3-10.2-56.2-3.9-76.2,16c-10.5,10.5-17.4,23.8-19.9,38.4
			c-0.5,2.5-1,5.1-1.6,7.9c-3.2,16.3-7.1,36.6-18.7,48.2L133.9,328c-12.8,12.8-12.8,33.6,0,46.4c6.4,6.4,14.8,9.6,23.2,9.6
			c8.4,0,16.8-3.2,23.2-9.6l103.6-103.6c11.6-11.6,31.9-15.5,48.2-18.7c2.8-0.5,5.4-1.1,7.9-1.6c14.6-2.5,27.9-9.3,38.4-19.9
			c3.1-3.1,4-7.3,2.7-11.1C395.2,201,398.7,176.3,390.2,154.3L390.2,154.3z M377.7,157.8c0.5-0.5,1-0.7,1.5-0.6
			c0.4,0.1,0.7,0.4,0.9,0.9c6.9,17.7,4.5,37.4-6.1,52.8l-24.8-24.8L377.7,157.8z M370.8,223.1c-9,9-20.3,14.8-32.7,16.9
			c-0.1,0-0.2,0-0.2,0c-2.4,0.5-5.1,1-7.8,1.6c-17.7,3.5-39.8,7.7-53.7,21.6L172.7,366.8c-8.6,8.6-22.6,8.6-31.2,0
			c-8.6-8.6-8.6-22.6,0-31.2L245.1,232c13.9-13.9,18.2-36,21.6-53.7c0.5-2.8,1.1-5.4,1.6-7.8c0-0.1,0-0.2,0-0.2
			c2.1-12.4,7.9-23.7,16.9-32.7c11.6-11.6,27-17.7,42.8-17.7c7.4,0,14.8,1.3,21.9,4.1c0.6,0.3,1,0.7,1.2,1.2
			c0.1,0.6-0.1,1.3-0.7,1.9l-34,34c-2.1,2.1-2.1,5.5,0,7.6l54.4,54.4C370.9,223,370.9,223,370.8,223.1
			C370.9,223,370.8,223,370.8,223.1L370.8,223.1z"/>
		<path d="M308.9,176.2c-1-1-2.4-1.6-3.8-1.6c-1.4,0-2.8,0.6-3.8,1.6l-15.2,15.2c-2.1,2.1-2.1,5.5,0,7.6l21.4,21.4
			c1,1,2.4,1.6,3.8,1.6s2.8-0.6,3.8-1.6l15.2-15.2c2.1-2.1,2.1-5.5,0-7.6L308.9,176.2z M311.3,209l-13.9-13.9l7.6-7.6l13.9,13.9
			L311.3,209z"/>
		<path d="M160.9,347.4c-2.1-2.1-5.5-2.1-7.6,0c-2.1,2.1-2.1,5.5,0,7.6c1,1,2.4,1.6,3.8,1.6c1.4,0,2.7-0.5,3.8-1.6
			C163,352.9,163,349.5,160.9,347.4L160.9,347.4z"/>
		<path d="M256.9,243.8l-86.5,86.5c-2.1,2.1-2.1,5.5,0,7.6c1,1,2.4,1.6,3.8,1.6c1.4,0,2.7-0.5,3.8-1.6l86.5-86.5
			c2.1-2.1,2.1-5.5,0-7.6C262.4,241.7,259,241.7,256.9,243.8L256.9,243.8z"/>
	</g>
</g>
<rect x="40.2" y="234.4" transform="matrix(0.7071 0.7071 -0.7071 0.7071 250.3434 -111.3115)" class="st0" width="438.7" height="24.2"/>
</svg>
