<?xml version="1.0" encoding="iso-8859-1"?>
<!-- Generator: Adobe Illustrator 19.0.0, SVG Export Plug-In . SVG Version: 6.00 Build 0)  -->
<svg version="1.1" id="Capa_1" xmlns="http://www.w3.org/2000/svg" xmlns:xlink="http://www.w3.org/1999/xlink" x="0px" y="0px"
	 viewBox="0 0 512 512" style="enable-background:new 0 0 512 512;" xml:space="preserve">
<g>
	<g>
		<path d="M437.02,74.98C388.667,26.629,324.38,0,256,0S123.333,26.629,74.98,74.98C26.629,123.333,0,187.62,0,256
			s26.629,132.667,74.98,181.02C123.333,485.371,187.62,512,256,512s132.667-26.629,181.02-74.98
			C485.371,388.667,512,324.38,512,256S485.371,123.333,437.02,74.98z M426.413,426.413C380.894,471.932,320.374,497,256,497
			s-124.894-25.068-170.413-70.587C40.068,380.894,15,320.374,15,256S40.068,131.106,85.587,85.587
			C131.106,40.068,191.626,15,256,15s124.894,25.068,170.413,70.587C471.932,131.106,497,191.626,497,256
			S471.932,380.894,426.413,426.413z"/>
	</g>
</g>
<g>
	<g>
		<path d="M364.652,224.68c-1.263-2.563-3.871-4.186-6.728-4.186h-78.508l33.636-69.593c1.803-3.729,0.241-8.214-3.489-10.016
			c-3.731-1.805-8.214-0.241-10.016,3.489l-38.839,80.357c-1.124,2.324-0.973,5.063,0.399,7.25c1.372,2.187,3.772,3.514,6.354,3.514
			h75.238L221.687,392.917l38.083-121.242c0.716-2.278,0.304-4.761-1.109-6.686c-1.413-1.925-3.658-3.062-6.046-3.062h-71.632
			l49.944-150.734h84.659l-2.209,4.572c-1.803,3.729-0.241,8.214,3.489,10.016c3.729,1.803,8.214,0.241,10.016-3.489l7.412-15.335
			c1.124-2.324,0.973-5.063-0.399-7.25s-3.772-3.514-6.354-3.514h-102.03c-3.233,0-6.103,2.072-7.12,5.141l-54.914,165.734
			c-0.757,2.286-0.371,4.797,1.039,6.75c1.41,1.953,3.672,3.109,6.081,3.109h71.801l-47.695,151.844
			c-1.09,3.47,0.467,7.222,3.693,8.9c1.1,0.572,2.286,0.848,3.458,0.848c2.268,0,4.489-1.029,5.95-2.93L363.87,232.565
			C365.611,230.3,365.914,227.243,364.652,224.68z"/>
	</g>
</g>
<g>
</g>
<g>
</g>
<g>
</g>
<g>
</g>
<g>
</g>
<g>
</g>
<g>
</g>
<g>
</g>
<g>
</g>
<g>
</g>
<g>
</g>
<g>
</g>
<g>
</g>
<g>
</g>
<g>
</g>
</svg>
