<?xml version="1.0" encoding="utf-8"?>
<!-- Generator: Adobe Illustrator 24.0.1, SVG Export Plug-In . SVG Version: 6.00 Build 0)  -->
<svg version="1.1" xmlns="http://www.w3.org/2000/svg" xmlns:xlink="http://www.w3.org/1999/xlink" x="0px" y="0px"
	 viewBox="0 0 1920 1080" style="enable-background:new 0 0 1920 1080;" xml:space="preserve">
<style type="text/css">
	.st0{display:none;}
	.st1{display:inline;}
	.st2{fill:#D4D9DD;}
	.st3{fill:#31313A;}
	.st4{display:inline;fill:#D4D9DD;}
	.st5{display:none;fill:#FFFFFF;}
	.st6{fill:none;}
	.st7{fill:#FFFFFF;}
	.st8{display:inline;fill:#879196;}
	.st9{display:inline;fill:#50585B;}
	.st10{display:inline;fill:#FFFFFF;}
</style>
<g id="Bottle" class="st0">
	<g id="TopFirstForm" class="st1">
		<path class="st2" d="M470.6,81h-280c-17.1,0-31-13.9-31-31v0c0-17.1,13.9-31,31-31h280c17.1,0,31,13.9,31,31v0
			C501.6,67.1,487.8,81,470.6,81z"/>
	</g>
	<g id="TopSecondForm" class="st1">
		<path class="st2" d="M470.6,143h-280c-17.1,0-31-13.9-31-31v0c0-17.1,13.9-31,31-31h280c17.1,0,31,13.9,31,31v0
			C501.6,129.1,487.8,143,470.6,143z"/>
	</g>
	<g id="Body" class="st1">
		<path class="st2" d="M330.6,208c-127,0-230,165.2-230,369s103,369,230,369s230-165.2,230-369S457.7,208,330.6,208z M330.6,913.3
			c-115.7,0-209.5-150.5-209.5-336.1s93.8-336.1,209.5-336.1s209.5,150.5,209.5,336.1S446.3,913.3,330.6,913.3z"/>
	</g>
	<g id="Neck" class="st1">
		<rect x="250" y="93" class="st2" width="162" height="145"/>
	</g>
	<g id="BottomFirstForm" class="st1">
		<path class="st2" d="M372.6,976h-84c-11.9,0-21.5-9.6-21.5-21.5l0,0c0-11.9,9.6-21.5,21.5-21.5h84c11.9,0,21.5,9.6,21.5,21.5l0,0
			C394.1,966.4,384.5,976,372.6,976z"/>
	</g>
	<g id="BottomSecondForm" class="st1">
		<path class="st2" d="M372.6,1019h-84c-11.9,0-21.5-9.6-21.5-21.5l0,0c0-11.9,9.6-21.5,21.5-21.5h84c11.9,0,21.5,9.6,21.5,21.5l0,0
			C394.1,1009.4,384.5,1019,372.6,1019z"/>
	</g>
</g>
<g id="Hourglass_x5F_bottle" class="st0">
	<g class="st1">
		<path class="st2" d="M210,909c-7.6,0-13.9-6.2-13.9-13.9v-2.3c0-5.8,3.6-11,9.1-13l5.1-1.9l-5.1-1.9c-5.4-2-9.1-7.2-9.1-13v-2.3
			c0-6.4,4.3-11.9,10.5-13.4l7.2-1.8l-7.1-2.1c-27.9-8.1-51.8-22.6-69-41.9c-17.6-19.6-26.8-42.7-26.8-66.7
			c0-24.1,9.3-47.2,26.9-66.8l0.1-0.1l0.1-0.2c0.5-0.8,0.9-1.5,1.4-2.1l89.1-117.6h-9.8c-3.3,0-5.9-2.7-5.9-5.9v-1.3
			c0-2.8,1.9-5.2,4.6-5.8l8.7-2l-8.7-2c-2.7-0.6-4.6-3-4.6-5.8v-1.3c0-3.3,2.7-5.9,5.9-5.9h5.7l-85-112.2c-0.5-0.6-0.9-1.3-1.4-2.1
			l-0.1-0.2l-0.1-0.1c-17.6-19.6-26.9-42.7-26.9-66.8c0-39.2,24.9-75.5,66.7-97l1.1-0.6v-41.2h-69.1c-11.5,0-20.9-9.4-20.9-20.9V174
			c0-11.5,9.4-20.9,20.9-20.9v-4c-11.5,0-20.9-9.4-20.9-20.9v-3.3c0-11.5,9.4-20.9,20.9-20.9h296.2c11.5,0,20.9,9.4,20.9,20.9v3.3
			c0,11.5-9.4,20.9-20.9,20.9v4c11.5,0,20.9,9.4,20.9,20.9v3.3c0,11.5-9.4,20.9-20.9,20.9h-69.1v41.2l1.1,0.6
			c41.7,21.5,66.7,57.8,66.7,97c0,24.1-9.3,47.2-26.9,66.8l-0.1,0.1l-0.1,0.2c-0.5,0.8-1,1.5-1.4,2.1l-85,112.2h5.7
			c3.3,0,5.9,2.7,5.9,5.9v1.3c0,2.7-1.9,5.2-4.6,5.8l-8.7,2l8.7,2c2.7,0.6,4.6,3,4.6,5.8v1.3c0,3.3-2.7,5.9-5.9,5.9h-9.8l89.1,117.6
			c0.5,0.6,0.9,1.3,1.4,2.1l0.1,0.2l0.1,0.1c17.6,19.6,26.9,42.7,26.9,66.8c0,24.1-9.3,47.1-26.8,66.7c-17.2,19.2-41.1,33.7-69,41.9
			l-7.1,2.1l7.2,1.8c6.2,1.5,10.5,7.1,10.5,13.4v2.3c0,5.8-3.6,11-9.1,13L305,878l5.1,1.9c5.4,2,9.1,7.2,9.1,13v2.3
			c0,7.7-6.2,13.9-13.9,13.9H210z M160.4,670c-8.6,8.7-15.2,18.3-19.7,28.7c-4.5,10.3-6.7,21.1-6.7,32.1
			c0,54.2,55.5,98.3,123.6,98.3c68.2,0,123.6-44.1,123.6-98.3c0-11-2.3-21.8-6.7-32.1c-4.5-10.4-11.1-20-19.7-28.7
			c-0.9-1.9-1.9-3.7-3.2-5.3l-72.5-95.7c-5.1-6.8-13-10.7-21.5-10.7c-8.5,0-16.4,3.9-21.5,10.7l-72.5,95.7
			C162.3,666.4,161.3,668.2,160.4,670z M160.4,398.9c0.9,1.9,1.9,3.7,3.2,5.3l72.5,95.7c5.1,6.8,13,10.7,21.5,10.7
			c8.5,0,16.4-3.9,21.5-10.7l72.5-95.7c1.2-1.6,2.3-3.4,3.2-5.3c8-8,14.3-17,18.7-26.5c5.1-11,7.7-22.5,7.7-34.3
			c0-52.4-51.6-95.6-117.4-98.2h-12.5c-65.8,2.6-117.4,45.7-117.4,98.2c0,11.8,2.6,23.3,7.7,34.3C146.2,382,152.5,390.9,160.4,398.9
			z"/>
		<path class="st3" d="M405.7,106c10.4,0,18.9,8.5,18.9,18.9v3.3c0,10.4-8.5,18.9-18.9,18.9v8c10.4,0,18.9,8.5,18.9,18.9v3.3
			c0,10.4-8.5,18.9-18.9,18.9h-67.1h-4v4v38v2.4l2.2,1.1c41.1,21.1,65.6,56.7,65.6,95.2c0,23.6-9.1,46.2-26.4,65.4l-0.3,0.3
			l-0.2,0.3c-0.5,0.8-0.9,1.4-1.3,1.9l-82.6,108.9l-4.9,6.4h8.1h1.6c2.2,0,3.9,1.8,3.9,3.9v1.3c0,1.8-1.3,3.4-3.1,3.8l-17.3,3.9
			l17.3,3.9c1.8,0.4,3.1,2,3.1,3.8v1.3c0,2.2-1.8,3.9-3.9,3.9h-5.8h-8.1l4.9,6.4l86.7,114.4c0.4,0.6,0.8,1.2,1.3,1.9l0.2,0.3
			l0.3,0.3c17.3,19.2,26.4,41.9,26.4,65.4c0,23.6-9.1,46.2-26.3,65.4c-17,19-40.5,33.2-68.1,41.3l-14.2,4.1l14.4,3.6
			c5.3,1.3,9,6.1,9,11.5v2.3c0,4.9-3.1,9.4-7.8,11.1l-10.1,3.8l10.1,3.8c4.6,1.7,7.8,6.2,7.8,11.1v2.3c0,6.5-5.3,11.9-11.9,11.9H210
			c-6.5,0-11.9-5.3-11.9-11.9v-2.3c0-4.9,3.1-9.4,7.8-11.1L216,878l-10.1-3.8c-4.6-1.7-7.8-6.2-7.8-11.1v-2.3c0-5.5,3.7-10.2,9-11.5
			l14.4-3.6l-14.2-4.1c-27.5-8-51.1-22.3-68.1-41.3c-17.2-19.2-26.3-41.8-26.3-65.4c0-23.6,9.1-46.2,26.4-65.4l0.3-0.3l0.2-0.3
			c0.5-0.8,0.9-1.4,1.3-1.9l86.7-114.4l4.9-6.4h-8.1h-5.8c-2.2,0-3.9-1.8-3.9-3.9v-1.3c0-1.8,1.3-3.4,3.1-3.8l17.3-3.9l-17.3-3.9
			c-1.8-0.4-3.1-2-3.1-3.8v-1.3c0-2.2,1.8-3.9,3.9-3.9h1.6h8.1l-4.9-6.4L141,404.9c-0.4-0.6-0.8-1.2-1.3-1.9l-0.2-0.3l-0.3-0.3
			c-17.3-19.2-26.4-41.9-26.4-65.4c0-38.5,24.5-74.1,65.6-95.2l2.2-1.1v-2.4v-38v-4h-4h-67.1c-10.4,0-18.9-8.5-18.9-18.9V174
			c0-10.4,8.5-18.9,18.9-18.9v-8c-10.4,0-18.9-8.5-18.9-18.9v-3.3c0-10.4,8.5-18.9,18.9-18.9H405.7 M158.8,400.1
			c0.9,1.9,2,3.7,3.2,5.4l31.3,41.2l41.3,54.4c5.5,7.3,14,11.5,23.1,11.5c9.2,0,17.6-4.2,23.1-11.5l41.3-54.4l31.3-41.2
			c1.3-1.7,2.3-3.5,3.2-5.4c8-8.1,14.3-17.2,18.9-26.8c5.2-11.2,7.9-23,7.9-35.1c0-53.5-52.4-97.5-119.3-100.2l-0.1,0h-0.1h-12.3
			h-0.1l-0.1,0C184.4,240.6,132,284.6,132,338.2c0,12.1,2.7,23.9,7.9,35.1C144.4,382.9,150.8,392,158.8,400.1 M158.8,668.9
			c-8.6,8.8-15.3,18.5-19.9,29.1c-4.6,10.6-6.9,21.6-6.9,32.9c0,55.3,56.4,100.3,125.6,100.3s125.6-45,125.6-100.3
			c0-11.3-2.3-22.3-6.9-32.9c-4.6-10.5-11.2-20.3-19.9-29.1c-0.9-1.9-2-3.7-3.2-5.4L325,626.2l-44.2-58.4
			c-5.5-7.3-14-11.5-23.1-11.5c-9.2,0-17.6,4.2-23.1,11.5l-44.2,58.4L162,663.5C160.7,665.2,159.7,667,158.8,668.9 M405.7,102H109.5
			c-12.6,0-22.9,10.2-22.9,22.9v3.3c0,12.6,10.2,22.9,22.9,22.9c-12.6,0-22.9,10.2-22.9,22.9v3.3c0,12.6,10.2,22.9,22.9,22.9h67.1
			v38c-40.8,21-67.7,57.4-67.7,98.8c0,25.4,10.1,48.9,27.4,68.1c0.5,0.8,1,1.5,1.5,2.3l82.6,108.9h-1.6c-4.4,0-7.9,3.6-7.9,7.9v1.3
			c0,3.8,2.6,6.9,6.2,7.7c-3.5,0.8-6.2,4-6.2,7.7v1.3c0,4.4,3.6,7.9,7.9,7.9h5.8l-86.7,114.4c-0.6,0.7-1.1,1.5-1.5,2.3
			c-17.3,19.2-27.4,42.7-27.4,68.1c0,50.7,40.5,93.9,97.3,110.5c-6.9,1.7-12,7.9-12,15.4v2.3c0,6.8,4.3,12.6,10.4,14.9
			c-6.1,2.2-10.4,8-10.4,14.9v2.3c0,8.8,7.1,15.9,15.9,15.9h95.3c8.8,0,15.9-7.1,15.9-15.9v-2.3c0-6.8-4.3-12.6-10.4-14.9
			c6.1-2.2,10.4-8,10.4-14.9v-2.3c0-7.4-5.1-13.7-12-15.4c56.8-16.6,97.3-59.8,97.3-110.5c0-25.4-10.1-48.9-27.4-68.1
			c-0.5-0.8-1-1.5-1.5-2.3l-86.7-114.4h5.8c4.4,0,7.9-3.6,7.9-7.9v-1.3c0-3.8-2.6-6.9-6.2-7.7c3.5-0.8,6.2-4,6.2-7.7v-1.3
			c0-4.4-3.6-7.9-7.9-7.9h-1.6l82.6-108.9c0.6-0.7,1.1-1.5,1.5-2.3c17.3-19.2,27.4-42.7,27.4-68.1c0-41.4-27-77.8-67.7-98.8v-38
			h67.1c12.6,0,22.9-10.2,22.9-22.9V174c0-12.6-10.2-22.9-22.9-22.9c12.6,0,22.9-10.2,22.9-22.9v-3.3
			C428.6,112.2,418.4,102,405.7,102L405.7,102z M257.6,508.6c-7.5,0-14.9-3.3-19.9-9.9l-41.3-54.4L165.2,403
			c-1.3-1.7-2.3-3.4-3.1-5.2c-7.8-7.8-14.1-16.7-18.6-26.2c-4.9-10.4-7.5-21.7-7.5-33.4c0-51.5,51.2-93.6,115.5-96.2h12.3
			c64.3,2.5,115.5,44.6,115.5,96.2c0,11.7-2.7,23-7.5,33.4c-4.5,9.5-10.8,18.4-18.6,26.2c-0.8,1.8-1.8,3.6-3.1,5.2l-31.3,41.2
			l-41.3,54.4C272.5,505.3,265.1,508.6,257.6,508.6L257.6,508.6z M257.6,827.1c-67.2,0-121.6-43.1-121.6-96.3
			c0-11,2.3-21.5,6.6-31.3c4.5-10.4,11.2-19.9,19.6-28.3c0.8-1.8,1.8-3.6,3.1-5.2l28.3-37.3l44.2-58.4c5-6.6,12.5-9.9,19.9-9.9
			s14.9,3.3,19.9,9.9l44.2,58.4l28.3,37.3c1.3,1.7,2.3,3.4,3.1,5.2c8.4,8.4,15.1,18,19.6,28.3c4.3,9.8,6.6,20.3,6.6,31.3
			C379.3,784,324.8,827.1,257.6,827.1L257.6,827.1z"/>
	</g>
</g>
<g id="Bottle_x5F_test" class="st0">
	<g id="TopSecondForm_4_" class="st1">
		<path class="st2" d="M365.7,136.9H69.5c-12.6,0-22.9-10.2-22.9-22.9v-3.3c0-12.6,10.2-22.9,22.9-22.9h296.2
			c12.6,0,22.9,10.2,22.9,22.9v3.3C388.6,126.7,378.4,136.9,365.7,136.9z"/>
	</g>
	<g id="TopFirstForm_4_" class="st1">
		<path class="st2" d="M365.7,87.9H69.5c-12.6,0-22.9-10.2-22.9-22.9v-3.3c0-12.6,10.2-22.9,22.9-22.9h296.2
			c12.6,0,22.9,10.2,22.9,22.9V65C388.6,77.6,378.4,87.9,365.7,87.9z"/>
	</g>
	<g id="Neck_4_" class="st1">
		<rect x="136.6" y="97.4" class="st2" width="162" height="81.4"/>
	</g>
	<g id="BottomSecondForm_4_" class="st1">
		<path class="st2" d="M265.2,847.8H170c-8.8,0-15.9-7.1-15.9-15.9v-2.3c0-8.8,7.1-15.9,15.9-15.9h95.3c8.8,0,15.9,7.1,15.9,15.9
			v2.3C281.1,840.7,274,847.8,265.2,847.8z"/>
	</g>
	<g id="BottomFirstForm_4_" class="st1">
		<path class="st2" d="M265.2,815.7H170c-8.8,0-15.9-7.1-15.9-15.9v-2.3c0-8.8,7.1-15.9,15.9-15.9h95.3c8.8,0,15.9,7.1,15.9,15.9
			v2.3C281.1,808.6,274,815.7,265.2,815.7z"/>
	</g>
	<g id="Bottom_x5F_Body_2_" class="st1">
		<path class="st2" d="M339,603.6c6.9,11.4,3.3,25.4-6.3,32.7c4.3,9.8,6.6,20.3,6.6,31.3c0,53.2-54.5,96.3-121.6,96.3
			c-67.2,0-121.6-43.1-121.6-96.3c0-11,2.3-21.5,6.6-31.3C93,629,89.4,615,96.3,603.6c-17.3,19.2-27.4,42.7-27.4,68.1
			c0,65,66.6,117.7,148.7,117.7c82.1,0,148.7-52.7,148.7-117.7C366.4,646.3,356.2,622.8,339,603.6z"/>
		<path class="st2" d="M153.5,565.4l44.2-58.4c10-13.2,29.8-13.2,39.8,0l44.2,58.4c22.9,8.7,42.6,21.9,57.2,38.1
			c-0.5-0.8-1-1.5-1.5-2.3l-99.9-131.8c-10-13.2-29.8-13.2-39.8,0L97.8,601.3c-0.6,0.7-1.1,1.5-1.5,2.3
			C110.9,587.3,130.5,574.1,153.5,565.4z"/>
		<path class="st2" d="M102.6,636.3c4.5-10.4,11.2-19.9,19.6-28.3c0.8-1.8,1.8-3.6,3.1-5.2l28.3-37.3c-22.9,8.7-42.6,21.9-57.2,38.1
			C89.4,615,93,629,102.6,636.3z"/>
		<path class="st2" d="M281.8,565.4l28.3,37.3c1.3,1.7,2.3,3.4,3.1,5.2c8.4,8.4,15.1,18,19.6,28.3c9.6-7.4,13.2-21.3,6.3-32.7
			C324.4,587.3,304.7,574.1,281.8,565.4z"/>
	</g>
	<g id="MiddleSecondForm_1_" class="st1">
		<path class="st2" d="M256.5,486.9h-77.8c-4.4,0-7.9-3.6-7.9-7.9v-1.3c0-4.4,3.6-7.9,7.9-7.9h77.8c4.4,0,7.9,3.6,7.9,7.9v1.3
			C264.4,483.4,260.9,486.9,256.5,486.9z"/>
	</g>
	<g id="MiddleFirstForm_2_" class="st1">
		<path class="st2" d="M256.5,470.2h-77.8c-4.4,0-7.9-3.6-7.9-7.9V461c0-4.4,3.6-7.9,7.9-7.9h77.8c4.4,0,7.9,3.6,7.9,7.9v1.3
			C264.4,466.6,260.9,470.2,256.5,470.2z"/>
	</g>
	<g id="Cross_3_" class="st1">
		<g>
			<rect id="Left_3_" x="149.3" y="624.7" width="12.7" height="103.6"/>
			<rect id="Right_3_" x="179.7" y="624.7" width="12.7" height="103.6"/>
		</g>
		<g>
			
				<rect id="Top_3_" x="164.5" y="609.3" transform="matrix(6.123234e-17 -1 1 6.123234e-17 -490.2458 831.8825)" width="12.7" height="103.6"/>
			
				<rect id="Bottom_3_" x="164.5" y="640.2" transform="matrix(6.123234e-17 -1 1 6.123234e-17 -521.2011 862.8378)" width="12.7" height="103.6"/>
		</g>
	</g>
	<g id="Top_x5F_Body_3_" class="st1">
		<g id="Top_x5F_Body_4_">
			<path class="st2" d="M339.3,274.9c0,1.4,0,2.7-0.1,4.1l27.2-8.6c-0.2-6.2-1-12.3-2.4-18.3l-28.2-0.3
				C338,259.2,339.3,267,339.3,274.9z"/>
			<path class="st2" d="M103.5,308.4C98.7,298,96,286.7,96,274.9c0-53.2,54.5-96.3,121.6-96.3c42.3,0,79.6,17.1,101.4,43.1l26.4-8.4
				c-26-34.4-73.5-57.4-127.7-57.4c-82.1,0-148.7,52.7-148.7,117.7c0,25.4,10.1,48.9,27.4,68.1C89.1,330,93.2,315.5,103.5,308.4z"/>
			<path class="st2" d="M331.7,308.4c10.3,7.1,14.4,21.7,7.2,33.4c10.2-11.4,17.9-24.2,22.5-38.1l-27.6-0.3
				C333.2,305.1,332.5,306.7,331.7,308.4z"/>
			<path class="st2" d="M278.8,381l-41.3,54.4c-10,13.2-29.8,13.2-39.8,0L156.4,381c-24.2-8.7-44.9-22.3-60.2-39.2
				c0.5,0.8,1,1.5,1.5,2.3l99.9,131.8c10,13.2,29.8,13.2,39.8,0l99.9-131.8c0.6-0.7,1.1-1.5,1.5-2.3
				C323.8,358.8,303,372.4,278.8,381z"/>
			<path class="st2" d="M331.7,308.4c-4.5,9.5-10.8,18.4-18.6,26.2c-0.8,1.8-1.8,3.6-3.1,5.2L278.8,381
				c24.2-8.7,44.9-22.3,60.2-39.2C346.1,330,342,315.5,331.7,308.4z"/>
			<path class="st2" d="M156.4,381l-31.3-41.2c-1.3-1.7-2.3-3.4-3.1-5.2c-7.8-7.8-14.1-16.7-18.6-26.2c-10.3,7.1-14.4,21.7-7.2,33.4
				C111.5,358.8,132.2,372.4,156.4,381z"/>
		</g>
		<g id="Broked_part_top_2_">
			<g class="st0">
				<path class="st4" d="M335.7,251.8c-3.4-10.9-9.1-21-16.7-30.1l-90.7,28.8L335.7,251.8z"/>
			</g>
			<g>
				<path class="st2" d="M335.7,251.8l28.2,0.3c-3.3-13.9-9.6-27-18.5-38.8l-26.4,8.4C326.6,230.8,332.3,240.9,335.7,251.8z"/>
			</g>
		</g>
		<g id="Broked_part_bottom_1_">
			<path class="st5" d="M333.8,303.4c3-7.8,4.9-15.9,5.3-24.4l-74.2,23.6L333.8,303.4z"/>
			<g>
				<path class="st2" d="M366.3,270.4l-27.2,8.6c-0.4,8.5-2.3,16.6-5.3,24.4l27.6,0.3c3.2-9.6,4.9-19.6,4.9-30
					C366.4,272.6,366.3,271.5,366.3,270.4z"/>
			</g>
		</g>
	</g>
</g>
<g id="Bottle_x5F_test_1_">
	<g>
		<path class="st2" d="M210,909c-7.6,0-13.9-6.2-13.9-13.9v-2.3c0-5.8,3.6-11,9.1-13l5.1-1.9l-5.1-1.9c-5.4-2-9.1-7.2-9.1-13v-2.3
			c0-6.4,4.3-11.9,10.5-13.4l7.2-1.8l-7.1-2.1c-27.9-8.1-51.8-22.6-69-41.9c-17.6-19.6-26.8-42.7-26.8-66.7
			c0-24.1,9.3-47.2,26.9-66.8l0.1-0.1l0.1-0.2c0.5-0.8,0.9-1.5,1.4-2.1l89.1-117.6h-9.8c-3.3,0-5.9-2.7-5.9-5.9v-1.3
			c0-2.8,1.9-5.2,4.6-5.8l8.7-2l-8.7-2c-2.7-0.6-4.6-3-4.6-5.8v-1.3c0-3.3,2.7-5.9,5.9-5.9h5.7l-85-112.2c-0.5-0.6-0.9-1.3-1.4-2.1
			l-0.1-0.2l-0.1-0.1c-17.6-19.6-26.9-42.7-26.9-66.8c0-39.2,24.9-75.5,66.7-97l1.1-0.6v-41.2h-69.1c-11.5,0-20.9-9.4-20.9-20.9V174
			c0-11.5,9.4-20.9,20.9-20.9v-4c-11.5,0-20.9-9.4-20.9-20.9v-3.3c0-11.5,9.4-20.9,20.9-20.9h296.2c11.5,0,20.9,9.4,20.9,20.9v3.3
			c0,11.5-9.4,20.9-20.9,20.9v4c11.5,0,20.9,9.4,20.9,20.9v3.3c0,11.5-9.4,20.9-20.9,20.9h-69.1v41.2l1.1,0.6
			c41.7,21.5,66.7,57.8,66.7,97c0,24.1-9.3,47.2-26.9,66.8l-0.1,0.1l-0.1,0.2c-0.5,0.8-1,1.5-1.4,2.1l-85,112.2h5.7
			c3.3,0,5.9,2.7,5.9,5.9v1.3c0,2.7-1.9,5.2-4.6,5.8l-8.7,2l8.7,2c2.7,0.6,4.6,3,4.6,5.8v1.3c0,3.3-2.7,5.9-5.9,5.9h-9.8l89.1,117.6
			c0.5,0.6,0.9,1.3,1.4,2.1l0.1,0.2l0.1,0.1c17.6,19.6,26.9,42.7,26.9,66.8c0,24.1-9.3,47.1-26.8,66.7c-17.2,19.2-41.1,33.7-69,41.9
			l-7.1,2.1l7.2,1.8c6.2,1.5,10.5,7.1,10.5,13.4v2.3c0,5.8-3.6,11-9.1,13L305,878l5.1,1.9c5.4,2,9.1,7.2,9.1,13v2.3
			c0,7.7-6.2,13.9-13.9,13.9H210z M160.4,670c-8.6,8.7-15.2,18.3-19.7,28.7c-4.5,10.3-6.7,21.1-6.7,32.1
			c0,54.2,55.5,98.3,123.6,98.3c68.2,0,123.6-44.1,123.6-98.3c0-11-2.3-21.8-6.7-32.1c-4.5-10.4-11.1-20-19.7-28.7
			c-0.9-1.9-1.9-3.7-3.2-5.3l-72.5-95.7c-5.1-6.8-13-10.7-21.5-10.7c-8.5,0-16.4,3.9-21.5,10.7l-72.5,95.7
			C162.3,666.4,161.3,668.2,160.4,670z M160.4,398.9c0.9,1.9,1.9,3.7,3.2,5.3l72.5,95.7c5.1,6.8,13,10.7,21.5,10.7
			c8.5,0,16.4-3.9,21.5-10.7l72.5-95.7c1.2-1.6,2.3-3.4,3.2-5.3c8-8,14.3-17,18.7-26.5c5.1-11,7.7-22.5,7.7-34.3
			c0-52.4-51.6-95.6-117.4-98.2h-12.5c-65.8,2.6-117.4,45.7-117.4,98.2c0,11.8,2.6,23.3,7.7,34.3C146.2,382,152.5,390.9,160.4,398.9
			z"/>
		<path class="st3" d="M405.7,106c10.4,0,18.9,8.5,18.9,18.9v3.3c0,10.4-8.5,18.9-18.9,18.9v8c10.4,0,18.9,8.5,18.9,18.9v3.3
			c0,10.4-8.5,18.9-18.9,18.9h-67.1h-4v4v38v2.4l2.2,1.1c41.1,21.1,65.6,56.7,65.6,95.2c0,23.6-9.1,46.2-26.4,65.4l-0.3,0.3
			l-0.2,0.3c-0.5,0.8-0.9,1.4-1.3,1.9l-82.6,108.9l-4.9,6.4h8.1h1.6c2.2,0,3.9,1.8,3.9,3.9v1.3c0,1.8-1.3,3.4-3.1,3.8l-17.3,3.9
			l17.3,3.9c1.8,0.4,3.1,2,3.1,3.8v1.3c0,2.2-1.8,3.9-3.9,3.9h-5.8h-8.1l4.9,6.4l86.7,114.4c0.4,0.6,0.8,1.2,1.3,1.9l0.2,0.3
			l0.3,0.3c17.3,19.2,26.4,41.9,26.4,65.4c0,23.6-9.1,46.2-26.3,65.4c-17,19-40.5,33.2-68.1,41.3l-14.2,4.1l14.4,3.6
			c5.3,1.3,9,6.1,9,11.5v2.3c0,4.9-3.1,9.4-7.8,11.1l-10.1,3.8l10.1,3.8c4.6,1.7,7.8,6.2,7.8,11.1v2.3c0,6.5-5.3,11.9-11.9,11.9H210
			c-6.5,0-11.9-5.3-11.9-11.9v-2.3c0-4.9,3.1-9.4,7.8-11.1L216,878l-10.1-3.8c-4.6-1.7-7.8-6.2-7.8-11.1v-2.3c0-5.5,3.7-10.2,9-11.5
			l14.4-3.6l-14.2-4.1c-27.5-8-51.1-22.3-68.1-41.3c-17.2-19.2-26.3-41.8-26.3-65.4c0-23.6,9.1-46.2,26.4-65.4l0.3-0.3l0.2-0.3
			c0.5-0.8,0.9-1.4,1.3-1.9l86.7-114.4l4.9-6.4h-8.1h-5.8c-2.2,0-3.9-1.8-3.9-3.9v-1.3c0-1.8,1.3-3.4,3.1-3.8l17.3-3.9l-17.3-3.9
			c-1.8-0.4-3.1-2-3.1-3.8v-1.3c0-2.2,1.8-3.9,3.9-3.9h1.6h8.1l-4.9-6.4L141,404.9c-0.4-0.6-0.8-1.2-1.3-1.9l-0.2-0.3l-0.3-0.3
			c-17.3-19.2-26.4-41.9-26.4-65.4c0-38.5,24.5-74.1,65.6-95.2l2.2-1.1v-2.4v-38v-4h-4h-67.1c-10.4,0-18.9-8.5-18.9-18.9V174
			c0-10.4,8.5-18.9,18.9-18.9v-8c-10.4,0-18.9-8.5-18.9-18.9v-3.3c0-10.4,8.5-18.9,18.9-18.9H405.7 M158.8,400.1
			c0.9,1.9,2,3.7,3.2,5.4l31.3,41.2l41.3,54.4c5.5,7.3,14,11.5,23.1,11.5c9.2,0,17.6-4.2,23.1-11.5l41.3-54.4l31.3-41.2
			c1.3-1.7,2.3-3.5,3.2-5.4c8-8.1,14.3-17.2,18.9-26.8c5.2-11.2,7.9-23,7.9-35.1c0-53.5-52.4-97.5-119.3-100.2l-0.1,0h-0.1h-12.3
			h-0.1l-0.1,0C184.4,240.6,132,284.6,132,338.2c0,12.1,2.7,23.9,7.9,35.1C144.4,382.9,150.8,392,158.8,400.1 M158.8,668.9
			c-8.6,8.8-15.3,18.5-19.9,29.1c-4.6,10.6-6.9,21.6-6.9,32.9c0,55.3,56.4,100.3,125.6,100.3s125.6-45,125.6-100.3
			c0-11.3-2.3-22.3-6.9-32.9c-4.6-10.5-11.2-20.3-19.9-29.1c-0.9-1.9-2-3.7-3.2-5.4L325,626.2l-44.2-58.4
			c-5.5-7.3-14-11.5-23.1-11.5c-9.2,0-17.6,4.2-23.1,11.5l-44.2,58.4L162,663.5C160.7,665.2,159.7,667,158.8,668.9 M405.7,102H109.5
			c-12.6,0-22.9,10.2-22.9,22.9v3.3c0,12.6,10.2,22.9,22.9,22.9c-12.6,0-22.9,10.2-22.9,22.9v3.3c0,12.6,10.2,22.9,22.9,22.9h67.1
			v38c-40.8,21-67.7,57.4-67.7,98.8c0,25.4,10.1,48.9,27.4,68.1c0.5,0.8,1,1.5,1.5,2.3l82.6,108.9h-1.6c-4.4,0-7.9,3.6-7.9,7.9v1.3
			c0,3.8,2.6,6.9,6.2,7.7c-3.5,0.8-6.2,4-6.2,7.7v1.3c0,4.4,3.6,7.9,7.9,7.9h5.8l-86.7,114.4c-0.6,0.7-1.1,1.5-1.5,2.3
			c-17.3,19.2-27.4,42.7-27.4,68.1c0,50.7,40.5,93.9,97.3,110.5c-6.9,1.7-12,7.9-12,15.4v2.3c0,6.8,4.3,12.6,10.4,14.9
			c-6.1,2.2-10.4,8-10.4,14.9v2.3c0,8.8,7.1,15.9,15.9,15.9h95.3c8.8,0,15.9-7.1,15.9-15.9v-2.3c0-6.8-4.3-12.6-10.4-14.9
			c6.1-2.2,10.4-8,10.4-14.9v-2.3c0-7.4-5.1-13.7-12-15.4c56.8-16.6,97.3-59.8,97.3-110.5c0-25.4-10.1-48.9-27.4-68.1
			c-0.5-0.8-1-1.5-1.5-2.3l-86.7-114.4h5.8c4.4,0,7.9-3.6,7.9-7.9v-1.3c0-3.8-2.6-6.9-6.2-7.7c3.5-0.8,6.2-4,6.2-7.7v-1.3
			c0-4.4-3.6-7.9-7.9-7.9h-1.6l82.6-108.9c0.6-0.7,1.1-1.5,1.5-2.3c17.3-19.2,27.4-42.7,27.4-68.1c0-41.4-27-77.8-67.7-98.8v-38
			h67.1c12.6,0,22.9-10.2,22.9-22.9V174c0-12.6-10.2-22.9-22.9-22.9c12.6,0,22.9-10.2,22.9-22.9v-3.3
			C428.6,112.2,418.4,102,405.7,102L405.7,102z M257.6,508.6c-7.5,0-14.9-3.3-19.9-9.9l-41.3-54.4L165.2,403
			c-1.3-1.7-2.3-3.4-3.1-5.2c-7.8-7.8-14.1-16.7-18.6-26.2c-4.9-10.4-7.5-21.7-7.5-33.4c0-51.5,51.2-93.6,115.5-96.2h12.3
			c64.3,2.5,115.5,44.6,115.5,96.2c0,11.7-2.7,23-7.5,33.4c-4.5,9.5-10.8,18.4-18.6,26.2c-0.8,1.8-1.8,3.6-3.1,5.2l-31.3,41.2
			l-41.3,54.4C272.5,505.3,265.1,508.6,257.6,508.6L257.6,508.6z M257.6,827.1c-67.2,0-121.6-43.1-121.6-96.3
			c0-11,2.3-21.5,6.6-31.3c4.5-10.4,11.2-19.9,19.6-28.3c0.8-1.8,1.8-3.6,3.1-5.2l28.3-37.3l44.2-58.4c5-6.6,12.5-9.9,19.9-9.9
			s14.9,3.3,19.9,9.9l44.2,58.4l28.3,37.3c1.3,1.7,2.3,3.4,3.1,5.2c8.4,8.4,15.1,18,19.6,28.3c4.3,9.8,6.6,20.3,6.6,31.3
			C379.3,784,324.8,827.1,257.6,827.1L257.6,827.1z"/>
	</g>
	<g class="st0">
		<g class="st1">
			<rect x="203.6" y="326.1" class="st3" width="8.7" height="14.3"/>
			<path class="st3" d="M210.3,328.1v10.3h-4.7v-10.3H210.3 M214.3,324.1h-12.7v18.3h12.7V324.1L214.3,324.1z"/>
		</g>
		<g class="st1">
			<rect x="203.6" y="283.5" class="st3" width="8.7" height="26"/>
			<path class="st3" d="M210.3,285.5v22h-4.7v-22H210.3 M214.3,281.5h-12.7v30h12.7V281.5L214.3,281.5z"/>
		</g>
		<g class="st1">
			<rect x="203.6" y="357.1" class="st3" width="8.7" height="26"/>
			<path class="st3" d="M210.3,359.1v22h-4.7v-22H210.3 M214.3,355.1h-12.7v30h12.7V355.1L214.3,355.1z"/>
		</g>
		<g class="st1">
			<rect x="234.1" y="283.5" class="st3" width="8.7" height="26"/>
			<path class="st3" d="M240.8,285.5v22h-4.7v-22H240.8 M244.8,281.5h-12.7v30h12.7V281.5L244.8,281.5z"/>
		</g>
		<g class="st1">
			<rect x="234.1" y="357.1" class="st3" width="8.7" height="26"/>
			<path class="st3" d="M240.8,359.1v22h-4.7v-22H240.8 M244.8,355.1h-12.7v30h12.7V355.1L244.8,355.1z"/>
		</g>
		<g class="st1">
			<rect x="234.1" y="326.1" class="st3" width="8.7" height="14.3"/>
			<path class="st3" d="M240.8,328.1v10.3h-4.7v-10.3H240.8 M244.8,324.1h-12.7v18.3h12.7V324.1L244.8,324.1z"/>
		</g>
		<g class="st1">
			<rect x="216.3" y="313.4" class="st3" width="13.8" height="8.7"/>
			<path class="st3" d="M228.1,315.4v4.7h-9.8v-4.7H228.1 M232.1,311.4h-17.8v12.7h17.8V311.4L232.1,311.4z"/>
		</g>
		<g class="st1">
			<rect x="173.4" y="313.4" class="st3" width="26.2" height="8.7"/>
			<path class="st3" d="M197.6,315.4v4.7h-22.2v-4.7H197.6 M201.6,311.4h-30.2v12.7h30.2V311.4L201.6,311.4z"/>
		</g>
		<g class="st1">
			<rect x="246.8" y="313.4" class="st3" width="26.2" height="8.7"/>
			<path class="st3" d="M271,315.4v4.7h-22.2v-4.7H271 M275,311.4h-30.2v12.7H275V311.4L275,311.4z"/>
		</g>
		<g class="st1">
			<rect x="203.6" y="313.4" class="st3" width="8.7" height="8.7"/>
			<path class="st3" d="M210.3,315.4v4.7h-4.7v-4.7H210.3 M214.3,311.4h-12.7v12.7h12.7V311.4L214.3,311.4z"/>
		</g>
		<g class="st1">
			<rect x="234.1" y="313.4" class="st3" width="8.7" height="8.7"/>
			<path class="st3" d="M240.8,315.4v4.7h-4.7v-4.7H240.8 M244.8,311.4h-12.7v12.7h12.7V311.4L244.8,311.4z"/>
		</g>
		<g class="st1">
			<rect x="246.8" y="344.4" class="st3" width="26.2" height="8.7"/>
			<path class="st3" d="M271,346.4v4.7h-22.2v-4.7H271 M275,342.4h-30.2v12.7H275V342.4L275,342.4z"/>
		</g>
		<g class="st1">
			<rect x="216.3" y="344.4" class="st3" width="13.8" height="8.7"/>
			<path class="st3" d="M228.1,346.4v4.7h-9.8v-4.7H228.1 M232.1,342.4h-17.8v12.7h17.8V342.4L232.1,342.4z"/>
		</g>
		<g class="st1">
			<rect x="173.4" y="344.4" class="st3" width="26.2" height="8.7"/>
			<path class="st3" d="M197.6,346.4v4.7h-22.2v-4.7H197.6 M201.6,342.4h-30.2v12.7h30.2V342.4L201.6,342.4z"/>
		</g>
		<g class="st1">
			<rect x="203.6" y="344.4" class="st3" width="8.7" height="8.7"/>
			<path class="st3" d="M210.3,346.4v4.7h-4.7v-4.7H210.3 M214.3,342.4h-12.7v12.7h12.7V342.4L214.3,342.4z"/>
		</g>
		<g class="st1">
			<rect x="234.1" y="344.4" class="st3" width="8.7" height="8.7"/>
			<path class="st3" d="M240.8,346.4v4.7h-4.7v-4.7H240.8 M244.8,342.4h-12.7v12.7h12.7V342.4L244.8,342.4z"/>
		</g>
	</g>
</g>
<g id="Broken_x5F_Hourglass_x5F_Bottle_x5F_New" class="st0">
	<g class="st1">
		<path class="st6" d="M379,331.8c-0.7-8.6-2.8-16.8-6.2-24.7L286,326l74.7-39c-20.5-25.8-56.1-43.4-96.9-45h-12.3
			c-64.3,2.5-115.5,44.6-115.5,96.2c0,11.7,2.7,23,7.5,33.4c4.5,9.5,10.8,18.4,18.6,26.2c0.8,1.8,1.8,3.6,3.1,5.2l31.3,41.2
			l41.3,54.4c10,13.2,29.8,13.2,39.8,0l41.3-54.4l31.3-41.2c1.3-1.7,2.3-3.4,3.1-5.2c7.8-7.8,14.1-16.7,18.6-26.2
			c3.2-6.9,5.5-14.1,6.6-21.7L324,362L379,331.8z"/>
		<rect x="214.3" y="717.1" class="st6" width="17.8" height="18.3"/>
		<path class="st6" d="M353.1,671.2c-0.8-1.8-1.8-3.6-3.1-5.2l-28.3-37.3l-44.2-58.4c-10-13.2-29.8-13.2-39.8,0l-44.2,58.4
			l-28.3,37.3c-1.3,1.7-2.3,3.4-3.1,5.2c-8.4,8.4-15.1,18-19.6,28.3c-4.3,9.8-6.6,20.3-6.6,31.3c0,53.2,54.5,96.3,121.6,96.3
			c67.2,0,121.6-43.1,121.6-96.3c0-11-2.3-21.5-6.6-31.3C368.2,689.2,361.5,679.6,353.1,671.2z M275,717.1h-30.2v18.3H275v12.7
			h-30.2v30h-12.7v-30h-17.8v30h-12.7v-30h-30.2v-12.7h30.2v-18.3h-30.2v-12.7h30.2v-30h12.7v30h17.8v-30h12.7v30H275V717.1z"/>
		<g>
			<path class="st2" d="M380.7,328.6c-0.8-6.8-2.5-13.5-5.1-20l22.6-4.9c1.6,4.3,3,8.7,3.9,13.1L380.7,328.6z"/>
			<path class="st3" d="M396.9,306c1.2,3.2,2.1,6.5,2.9,9.8l-17.6,9.7c-0.8-5.2-2.2-10.4-4-15.4L396.9,306 M399.5,301.4l-26.7,5.8
				c3.4,7.8,5.5,16.1,6.2,24.7l25.4-14C403.3,312.2,401.6,306.7,399.5,301.4L399.5,301.4z"/>
		</g>
		<g>
			<path class="st2" d="M210,909c-7.6,0-13.9-6.2-13.9-13.9v-2.3c0-5.8,3.6-11,9.1-13l5.1-1.9l-5.1-1.9c-5.4-2-9.1-7.2-9.1-13v-2.3
				c0-6.4,4.3-11.9,10.5-13.4l7.2-1.8l-7.1-2.1c-27.9-8.1-51.8-22.6-69-41.9c-17.6-19.6-26.8-42.7-26.8-66.7
				c0-24.1,9.3-47.2,26.9-66.8l0.1-0.1l0.1-0.2c0.5-0.8,0.9-1.5,1.4-2.1l89.1-117.6h-9.8c-3.3,0-5.9-2.7-5.9-5.9v-1.3
				c0-2.8,1.9-5.2,4.6-5.8l8.7-2l-8.7-2c-2.7-0.6-4.6-3-4.6-5.8v-1.3c0-3.3,2.7-5.9,5.9-5.9h5.7l-85-112.2c-0.5-0.6-0.9-1.3-1.4-2.1
				l-0.1-0.2l-0.1-0.1c-17.6-19.6-26.9-42.7-26.9-66.8c0-39.2,24.9-75.5,66.7-97l1.1-0.6v-41.2h-69.1c-11.5,0-20.9-9.4-20.9-20.9
				V174c0-11.5,9.4-20.9,20.9-20.9v-4c-11.5,0-20.9-9.4-20.9-20.9v-3.3c0-11.5,9.4-20.9,20.9-20.9h296.2c11.5,0,20.9,9.4,20.9,20.9
				v3.3c0,11.5-9.4,20.9-20.9,20.9v4c11.5,0,20.9,9.4,20.9,20.9v3.3c0,11.5-9.4,20.9-20.9,20.9h-69.1v41.2l1.1,0.6
				c17.2,8.9,32.1,20.7,43.3,34.3l-19.7,10.3c-21.6-26.4-57.9-43-97.4-44.5l-12.4,0c-65.9,2.6-117.5,45.7-117.5,98.2
				c0,11.8,2.6,23.3,7.7,34.3c4.5,9.6,10.8,18.5,18.7,26.5c0.9,1.9,1.9,3.7,3.2,5.3l72.5,95.7c5.1,6.8,13,10.7,21.5,10.7
				c8.5,0,16.4-3.9,21.5-10.7l72.5-95.7c1.2-1.6,2.3-3.4,3.2-5.3c8-8,14.3-17,18.7-26.5c3.1-6.7,5.3-13.7,6.6-20.8l23.8-5.3
				c-2.1,20.7-11.2,40.4-26.4,57.4l-0.1,0.1l-0.1,0.2c-0.5,0.8-1,1.5-1.4,2.1l-85,112.2h5.7c3.3,0,5.9,2.7,5.9,5.9v1.3
				c0,2.7-1.9,5.2-4.6,5.8l-8.7,2l8.7,2c2.7,0.6,4.6,3,4.6,5.8v1.3c0,3.3-2.7,5.9-5.9,5.9h-9.8l89.1,117.6c0.5,0.6,0.9,1.3,1.4,2.1
				l0.1,0.2l0.1,0.1c17.6,19.6,26.9,42.7,26.9,66.8c0,24.1-9.3,47.1-26.8,66.7c-17.2,19.2-41.1,33.7-69,41.9l-7.1,2.1l7.2,1.8
				c6.2,1.5,10.5,7.1,10.5,13.4v2.3c0,5.8-3.6,11-9.1,13L305,878l5.1,1.9c5.4,2,9.1,7.2,9.1,13v2.3c0,7.7-6.2,13.9-13.9,13.9H210z
				 M160.4,670c-8.6,8.7-15.2,18.3-19.7,28.7c-4.5,10.3-6.7,21.1-6.7,32.1c0,54.2,55.5,98.3,123.6,98.3
				c68.2,0,123.6-44.1,123.6-98.3c0-11-2.3-21.8-6.7-32.1c-4.5-10.4-11.1-20-19.7-28.7c-0.9-1.9-1.9-3.7-3.2-5.3l-72.5-95.7
				c-5.1-6.8-13-10.7-21.5-10.7c-8.5,0-16.4,3.9-21.5,10.7l-72.5,95.7C162.3,666.4,161.3,668.2,160.4,670z"/>
			<path class="st3" d="M405.7,106c10.4,0,18.9,8.5,18.9,18.9v3.3c0,10.4-8.5,18.9-18.9,18.9v8c10.4,0,18.9,8.5,18.9,18.9v3.3
				c0,10.4-8.5,18.9-18.9,18.9h-67.1h-4v4v38v2.4l2.2,1.1c16.1,8.3,30.2,19.3,41,31.9l-16.1,8.4c-22.1-26.1-58.4-42.4-97.8-44
				l-0.1,0h-0.1h-12.3h-0.1l-0.1,0C184.4,240.6,132,284.6,132,338.2c0,12.1,2.7,23.9,7.9,35.1c4.5,9.7,10.9,18.7,18.9,26.8
				c0.9,1.9,2,3.7,3.2,5.4l31.3,41.2l41.3,54.4c5.5,7.3,14,11.5,23.1,11.5c9.2,0,17.6-4.2,23.1-11.5l41.3-54.4l31.3-41.2
				c1.3-1.7,2.3-3.5,3.2-5.4c8-8.1,14.3-17.2,18.9-26.8c3-6.5,5.2-13.2,6.5-20l19.7-4.4c-2.6,19.2-11.3,37.6-25.6,53.5l-0.3,0.3
				l-0.2,0.3c-0.5,0.8-0.9,1.4-1.3,1.9l-82.6,108.9l-4.9,6.4h8.1h1.6c2.2,0,3.9,1.8,3.9,3.9v1.3c0,1.8-1.3,3.4-3.1,3.8l-17.3,3.9
				l17.3,3.9c1.8,0.4,3.1,2,3.1,3.8v1.3c0,2.2-1.8,3.9-3.9,3.9h-5.8h-8.1l4.9,6.4l86.7,114.4c0.4,0.6,0.8,1.2,1.3,1.9l0.2,0.3
				l0.3,0.3c17.3,19.2,26.4,41.9,26.4,65.4c0,23.6-9.1,46.2-26.3,65.4c-17,19-40.5,33.2-68.1,41.3l-14.2,4.1l14.4,3.6
				c5.3,1.3,9,6.1,9,11.5v2.3c0,4.9-3.1,9.4-7.8,11.1l-10.1,3.8l10.1,3.8c4.6,1.7,7.8,6.2,7.8,11.1v2.3c0,6.5-5.3,11.9-11.9,11.9
				H210c-6.5,0-11.9-5.3-11.9-11.9v-2.3c0-4.9,3.1-9.4,7.8-11.1L216,878l-10.1-3.8c-4.6-1.7-7.8-6.2-7.8-11.1v-2.3
				c0-5.5,3.7-10.2,9-11.5l14.4-3.6l-14.2-4.1c-27.5-8-51.1-22.3-68.1-41.3c-17.2-19.2-26.3-41.8-26.3-65.4
				c0-23.6,9.1-46.2,26.4-65.4l0.3-0.3l0.2-0.3c0.5-0.8,0.9-1.4,1.3-1.9l86.7-114.4l4.9-6.4h-8.1h-5.8c-2.2,0-3.9-1.8-3.9-3.9v-1.3
				c0-1.8,1.3-3.4,3.1-3.8l17.3-3.9l-17.3-3.9c-1.8-0.4-3.1-2-3.1-3.8v-1.3c0-2.2,1.8-3.9,3.9-3.9h1.6h8.1l-4.9-6.4L141,404.9
				c-0.4-0.6-0.8-1.2-1.3-1.9l-0.2-0.3l-0.3-0.3c-17.3-19.2-26.4-41.9-26.4-65.4c0-38.5,24.5-74.1,65.6-95.2l2.2-1.1v-2.4v-38v-4h-4
				h-67.1c-10.4,0-18.9-8.5-18.9-18.9V174c0-10.4,8.5-18.9,18.9-18.9v-8c-10.4,0-18.9-8.5-18.9-18.9v-3.3c0-10.4,8.5-18.9,18.9-18.9
				H405.7 M158.8,668.9c-8.6,8.8-15.3,18.5-19.9,29.1c-4.6,10.6-6.9,21.6-6.9,32.9c0,55.3,56.4,100.3,125.6,100.3
				s125.6-45,125.6-100.3c0-11.3-2.3-22.3-6.9-32.9c-4.6-10.5-11.2-20.3-19.9-29.1c-0.9-1.9-2-3.7-3.2-5.4L325,626.2l-44.2-58.4
				c-5.5-7.3-14-11.5-23.1-11.5c-9.2,0-17.6,4.2-23.1,11.5l-44.2,58.4L162,663.5C160.7,665.2,159.7,667,158.8,668.9 M405.7,102
				H109.5c-12.6,0-22.9,10.2-22.9,22.9v3.3c0,12.6,10.2,22.9,22.9,22.9c-12.6,0-22.9,10.2-22.9,22.9v3.3c0,12.6,10.2,22.9,22.9,22.9
				h67.1v38c-40.8,21-67.7,57.4-67.7,98.8c0,25.4,10.1,48.9,27.4,68.1c0.5,0.8,1,1.5,1.5,2.3l82.6,108.9h-1.6
				c-4.4,0-7.9,3.6-7.9,7.9v1.3c0,3.8,2.6,6.9,6.2,7.7c-3.5,0.8-6.2,4-6.2,7.7v1.3c0,4.4,3.6,7.9,7.9,7.9h5.8l-86.7,114.4
				c-0.6,0.7-1.1,1.5-1.5,2.3c-17.3,19.2-27.4,42.7-27.4,68.1c0,50.7,40.5,93.9,97.3,110.5c-6.9,1.7-12,7.9-12,15.4v2.3
				c0,6.8,4.3,12.6,10.4,14.9c-6.1,2.2-10.4,8-10.4,14.9v2.3c0,8.8,7.1,15.9,15.9,15.9h95.3c8.8,0,15.9-7.1,15.9-15.9v-2.3
				c0-6.8-4.3-12.6-10.4-14.9c6.1-2.2,10.4-8,10.4-14.9v-2.3c0-7.4-5.1-13.7-12-15.4c56.8-16.6,97.3-59.8,97.3-110.5
				c0-25.4-10.1-48.9-27.4-68.1c-0.5-0.8-1-1.5-1.5-2.3l-86.7-114.4h5.8c4.4,0,7.9-3.6,7.9-7.9v-1.3c0-3.8-2.6-6.9-6.2-7.7
				c3.5-0.8,6.2-4,6.2-7.7v-1.3c0-4.4-3.6-7.9-7.9-7.9h-1.6l82.6-108.9c0.6-0.7,1.1-1.5,1.5-2.3c15.7-17.5,25.5-38.5,27.1-61.3
				l-27.8,6.2c-1.2,7.5-3.4,14.8-6.6,21.7c-4.5,9.5-10.8,18.4-18.6,26.2c-0.8,1.8-1.8,3.6-3.1,5.2l-31.3,41.2l-41.3,54.4
				c-5,6.6-12.5,9.9-19.9,9.9c-7.5,0-14.9-3.3-19.9-9.9l-41.3-54.4L165.2,403c-1.3-1.7-2.3-3.4-3.1-5.2
				c-7.8-7.8-14.1-16.7-18.6-26.2c-4.9-10.4-7.5-21.7-7.5-33.4c0-51.5,51.2-93.6,115.5-96.2h12.3c40.9,1.6,76.4,19.2,96.9,45
				l23.3-12.2c-11.6-14.7-27.1-27.3-45.4-36.7v-38h67.1c12.6,0,22.9-10.2,22.9-22.9V174c0-12.6-10.2-22.9-22.9-22.9
				c12.6,0,22.9-10.2,22.9-22.9v-3.3C428.6,112.2,418.4,102,405.7,102L405.7,102z M257.6,827.1c-67.2,0-121.6-43.1-121.6-96.3
				c0-11,2.3-21.5,6.6-31.3c4.5-10.4,11.2-19.9,19.6-28.3c0.8-1.8,1.8-3.6,3.1-5.2l28.3-37.3l44.2-58.4c5-6.6,12.5-9.9,19.9-9.9
				s14.9,3.3,19.9,9.9l44.2,58.4l28.3,37.3c1.3,1.7,2.3,3.4,3.1,5.2c8.4,8.4,15.1,18,19.6,28.3c4.3,9.8,6.6,20.3,6.6,31.3
				C379.3,784,324.8,827.1,257.6,827.1L257.6,827.1z"/>
		</g>
		<g>
			<rect x="203.6" y="719.1" class="st3" width="8.7" height="14.3"/>
			<path class="st3" d="M210.3,721.1v10.3h-4.7v-10.3H210.3 M214.3,717.1h-12.7v18.3h12.7V717.1L214.3,717.1z"/>
		</g>
		<g>
			<rect x="203.6" y="676.5" class="st3" width="8.7" height="26"/>
			<path class="st3" d="M210.3,678.5v22h-4.7v-22H210.3 M214.3,674.5h-12.7v30h12.7V674.5L214.3,674.5z"/>
		</g>
		<g>
			<rect x="203.6" y="750.1" class="st3" width="8.7" height="26"/>
			<path class="st3" d="M210.3,752.1v22h-4.7v-22H210.3 M214.3,748.1h-12.7v30h12.7V748.1L214.3,748.1z"/>
		</g>
		<g>
			<rect x="234.1" y="676.5" class="st3" width="8.7" height="26"/>
			<path class="st3" d="M240.8,678.5v22h-4.7v-22H240.8 M244.8,674.5h-12.7v30h12.7V674.5L244.8,674.5z"/>
		</g>
		<g>
			<rect x="234.1" y="750.1" class="st3" width="8.7" height="26"/>
			<path class="st3" d="M240.8,752.1v22h-4.7v-22H240.8 M244.8,748.1h-12.7v30h12.7V748.1L244.8,748.1z"/>
		</g>
		<g>
			<rect x="234.1" y="719.1" class="st3" width="8.7" height="14.3"/>
			<path class="st3" d="M240.8,721.1v10.3h-4.7v-10.3H240.8 M244.8,717.1h-12.7v18.3h12.7V717.1L244.8,717.1z"/>
		</g>
		<g>
			<rect x="216.3" y="706.4" class="st3" width="13.8" height="8.7"/>
			<path class="st3" d="M228.1,708.4v4.7h-9.8v-4.7H228.1 M232.1,704.4h-17.8v12.7h17.8V704.4L232.1,704.4z"/>
		</g>
		<g>
			<rect x="173.4" y="706.4" class="st3" width="26.2" height="8.7"/>
			<path class="st3" d="M197.6,708.4v4.7h-22.2v-4.7H197.6 M201.6,704.4h-30.2v12.7h30.2V704.4L201.6,704.4z"/>
		</g>
		<g>
			<rect x="246.8" y="706.4" class="st3" width="26.2" height="8.7"/>
			<path class="st3" d="M271,708.4v4.7h-22.2v-4.7H271 M275,704.4h-30.2v12.7H275V704.4L275,704.4z"/>
		</g>
		<g>
			<rect x="203.6" y="706.4" class="st3" width="8.7" height="8.7"/>
			<path class="st3" d="M210.3,708.4v4.7h-4.7v-4.7H210.3 M214.3,704.4h-12.7v12.7h12.7V704.4L214.3,704.4z"/>
		</g>
		<g>
			<rect x="234.1" y="706.4" class="st3" width="8.7" height="8.7"/>
			<path class="st3" d="M240.8,708.4v4.7h-4.7v-4.7H240.8 M244.8,704.4h-12.7v12.7h12.7V704.4L244.8,704.4z"/>
		</g>
		<g>
			<rect x="246.8" y="737.4" class="st3" width="26.2" height="8.7"/>
			<path class="st3" d="M271,739.4v4.7h-22.2v-4.7H271 M275,735.4h-30.2v12.7H275V735.4L275,735.4z"/>
		</g>
		<g>
			<rect x="216.3" y="737.4" class="st3" width="13.8" height="8.7"/>
			<path class="st3" d="M228.1,739.4v4.7h-9.8v-4.7H228.1 M232.1,735.4h-17.8v12.7h17.8V735.4L232.1,735.4z"/>
		</g>
		<g>
			<rect x="173.4" y="737.4" class="st3" width="26.2" height="8.7"/>
			<path class="st3" d="M197.6,739.4v4.7h-22.2v-4.7H197.6 M201.6,735.4h-30.2v12.7h30.2V735.4L201.6,735.4z"/>
		</g>
		<g>
			<rect x="203.6" y="737.4" class="st3" width="8.7" height="8.7"/>
			<path class="st3" d="M210.3,739.4v4.7h-4.7v-4.7H210.3 M214.3,735.4h-12.7v12.7h12.7V735.4L214.3,735.4z"/>
		</g>
		<g>
			<rect x="234.1" y="737.4" class="st3" width="8.7" height="8.7"/>
			<path class="st3" d="M240.8,739.4v4.7h-4.7v-4.7H240.8 M244.8,735.4h-12.7v12.7h12.7V735.4L244.8,735.4z"/>
		</g>
		<path class="st7" d="M372.8,307.2c-3.1-7.1-7.1-13.9-12.1-20.1L286,326L372.8,307.2z"/>
		<path class="st7" d="M372.8,307.2l26.7-5.8c-3.8-9.4-9-18.3-15.4-26.5L360.7,287C365.7,293.3,369.8,300.1,372.8,307.2z"/>
		<path class="st7" d="M379,331.8L324,362l54.4-12.1c0.6-3.9,0.9-7.8,0.9-11.8C379.3,336,379.2,333.9,379,331.8z"/>
		<path class="st7" d="M379.3,338.2c0,4-0.3,7.9-0.9,11.8l27.8-6.2c0.2-2.3,0.2-4.5,0.2-6.8c0-6.5-0.7-12.8-1.9-19l-25.4,14
			C379.2,333.9,379.3,336,379.3,338.2z"/>
	</g>
</g>
<g id="Broken_x5F_Hourglass_x5F_Bottle_x5F_Old" class="st0">
	<g id="TopSecondForm_2_" class="st1">
		<path class="st2" d="M366.1,134.7H69.9c-12.6,0-22.9-10.2-22.9-22.9v-3.3c0-12.6,10.2-22.9,22.9-22.9h296.2
			c12.6,0,22.9,10.2,22.9,22.9v3.3C389,124.4,378.8,134.7,366.1,134.7z"/>
	</g>
	<g id="TopFirstForm_2_" class="st1">
		<path class="st2" d="M366.1,85.6H69.9C57.2,85.6,47,75.3,47,62.7v-3.3c0-12.6,10.2-22.9,22.9-22.9h296.2
			c12.6,0,22.9,10.2,22.9,22.9v3.3C389,75.3,378.8,85.6,366.1,85.6z"/>
	</g>
	<g id="Neck_2_" class="st1">
		<rect x="137" y="95.1" class="st2" width="162" height="81.4"/>
	</g>
	<g id="BottomSecondForm_2_" class="st1">
		<path class="st2" d="M265.6,845.5h-95.3c-8.8,0-15.9-7.1-15.9-15.9v-2.3c0-8.8,7.1-15.9,15.9-15.9h95.3c8.8,0,15.9,7.1,15.9,15.9
			v2.3C281.5,838.4,274.4,845.5,265.6,845.5z"/>
	</g>
	<g id="BottomFirstForm_2_" class="st1">
		<path class="st2" d="M265.6,813.5h-95.3c-8.8,0-15.9-7.1-15.9-15.9v-2.3c0-8.8,7.1-15.9,15.9-15.9h95.3c8.8,0,15.9,7.1,15.9,15.9
			v2.3C281.5,806.4,274.4,813.5,265.6,813.5z"/>
	</g>
	<g id="Bottom_x5F_Body_1_" class="st1">
		<path class="st2" d="M339.3,601.3c6.9,11.4,3.3,25.4-6.3,32.7c4.3,9.8,6.6,20.3,6.6,31.3c0,53.2-54.5,96.3-121.6,96.3
			c-67.2,0-121.6-43.1-121.6-96.3c0-11,2.3-21.5,6.6-31.3c-9.6-7.4-13.2-21.3-6.3-32.7c-17.3,19.2-27.4,42.7-27.4,68.1
			c0,65,66.6,117.7,148.7,117.7c82.1,0,148.7-52.7,148.7-117.7C366.7,644,356.6,620.5,339.3,601.3z"/>
		<path class="st2" d="M153.8,563.1l44.2-58.4c10-13.2,29.8-13.2,39.8,0l44.2,58.4c22.9,8.7,42.6,21.9,57.2,38.1
			c-0.5-0.8-1-1.5-1.5-2.3l-99.9-131.8c-10-13.2-29.8-13.2-39.8,0L98.2,599c-0.6,0.7-1.1,1.5-1.5,2.3
			C111.2,585,130.9,571.8,153.8,563.1z"/>
		<path class="st2" d="M102.9,634c4.5-10.4,11.2-19.9,19.6-28.3c0.8-1.8,1.8-3.6,3.1-5.2l28.3-37.3c-22.9,8.7-42.6,21.9-57.2,38.1
			C89.7,612.7,93.4,626.7,102.9,634z"/>
		<path class="st2" d="M282.2,563.1l28.3,37.3c1.3,1.7,2.3,3.4,3.1,5.2c8.4,8.4,15.1,18,19.6,28.3c9.6-7.4,13.2-21.3,6.3-32.7
			C324.8,585,305.1,571.8,282.2,563.1z"/>
	</g>
	<g id="MiddleSecondForm_2_" class="st1">
		<path class="st2" d="M256.9,484.6h-77.8c-4.4,0-7.9-3.6-7.9-7.9v-1.3c0-4.4,3.6-7.9,7.9-7.9h77.8c4.4,0,7.9,3.6,7.9,7.9v1.3
			C264.8,481.1,261.3,484.6,256.9,484.6z"/>
	</g>
	<g id="MiddleFirstForm_1_" class="st1">
		<path class="st2" d="M256.9,467.9h-77.8c-4.4,0-7.9-3.6-7.9-7.9v-1.3c0-4.4,3.6-7.9,7.9-7.9h77.8c4.4,0,7.9,3.6,7.9,7.9v1.3
			C264.8,464.3,261.3,467.9,256.9,467.9z"/>
	</g>
	<g id="Cross_1_" class="st1">
		<g>
			<rect id="Left_1_" x="149.6" y="622.5" width="12.7" height="103.6"/>
			<rect id="Right_1_" x="180.1" y="622.5" width="12.7" height="103.6"/>
		</g>
		<g>
			
				<rect id="Top_1_" x="164.9" y="607" transform="matrix(6.123234e-17 -1 1 6.123234e-17 -487.5854 829.9768)" width="12.7" height="103.6"/>
			
				<rect id="Bottom_1_" x="164.9" y="637.9" transform="matrix(6.123234e-17 -1 1 6.123234e-17 -518.5407 860.9321)" width="12.7" height="103.6"/>
		</g>
	</g>
	<g id="Top_x5F_Body_1_" class="st1">
		<g id="Top_x5F_Body_2_">
			<path class="st2" d="M339.6,272.7c0,1.4,0,2.7-0.1,4.1l27.2-8.6c-0.2-6.2-1-12.3-2.4-18.3l-28.2-0.3
				C338.4,256.9,339.6,264.7,339.6,272.7z"/>
			<path class="st2" d="M103.9,306.1c-4.9-10.4-7.5-21.7-7.5-33.4c0-53.2,54.5-96.3,121.6-96.3c42.3,0,79.6,17.1,101.4,43.1
				l26.4-8.4c-26-34.4-73.5-57.4-127.7-57.4c-82.1,0-148.7,52.7-148.7,117.7c0,25.4,10.1,48.9,27.4,68.1
				C89.5,327.7,93.6,313.2,103.9,306.1z"/>
			<path class="st2" d="M332.1,306.1c10.3,7.1,14.4,21.7,7.2,33.4c10.2-11.4,17.9-24.2,22.5-38.1l-27.6-0.3
				C333.6,302.8,332.9,304.4,332.1,306.1z"/>
			<path class="st2" d="M279.2,378.8l-41.3,54.4c-10,13.2-29.8,13.2-39.8,0l-41.3-54.4c-24.2-8.7-44.9-22.3-60.2-39.2
				c0.5,0.8,1,1.5,1.5,2.3l99.9,131.8c10,13.2,29.8,13.2,39.8,0l99.9-131.8c0.6-0.7,1.1-1.5,1.5-2.3
				C324.1,356.5,303.4,370.1,279.2,378.8z"/>
			<path class="st2" d="M332.1,306.1c-4.5,9.5-10.8,18.4-18.6,26.2c-0.8,1.8-1.8,3.6-3.1,5.2l-31.3,41.2
				c24.2-8.7,44.9-22.3,60.2-39.2C346.5,327.7,342.4,313.2,332.1,306.1z"/>
			<path class="st2" d="M156.8,378.8l-31.3-41.2c-1.3-1.7-2.3-3.4-3.1-5.2c-7.8-7.8-14.1-16.7-18.6-26.2
				c-10.3,7.1-14.4,21.7-7.2,33.4C111.9,356.5,132.6,370.1,156.8,378.8z"/>
		</g>
		<g id="Broked_part_top_1_">
			<path class="st7" d="M336.1,249.5c-3.4-10.9-9.1-21-16.7-30.1l-90.7,28.8L336.1,249.5z"/>
			<path class="st7" d="M336.1,249.5l28.2,0.3c-3.3-13.9-9.6-27-18.5-38.8l-26.4,8.4C327,228.5,332.7,238.6,336.1,249.5z"/>
		</g>
		<g id="Broked_part_bottom">
			<path class="st7" d="M334.2,301.1c3-7.8,4.9-15.9,5.3-24.4l-74.2,23.6L334.2,301.1z"/>
			<path class="st7" d="M366.7,268.1l-27.2,8.6c-0.4,8.5-2.3,16.6-5.3,24.4l27.6,0.3c3.2-9.6,4.9-19.6,4.9-30
				C366.7,270.3,366.7,269.2,366.7,268.1z"/>
		</g>
	</g>
</g>
<g id="Broken_x5F_Bottle" class="st0">
	<g id="TopFirstForm_1_" class="st1">
		<path class="st2" d="M470.6,81h-280c-17.1,0-31-13.9-31-31v0c0-17.1,13.9-31,31-31h280c17.1,0,31,13.9,31,31v0
			C501.6,67.1,487.8,81,470.6,81z"/>
	</g>
	<g id="TopSecondForm_1_" class="st1">
		<path class="st2" d="M470.6,143h-280c-17.1,0-31-13.9-31-31v0c0-17.1,13.9-31,31-31h280c17.1,0,31,13.9,31,31v0
			C501.6,129.1,487.8,143,470.6,143z"/>
	</g>
	<g id="Neck_1_" class="st1">
		<rect x="250" y="93" class="st2" width="162" height="145"/>
	</g>
	<g id="BottomFirstForm_1_" class="st1">
		<path class="st2" d="M372.6,976h-84c-11.9,0-21.5-9.6-21.5-21.5l0,0c0-11.9,9.6-21.5,21.5-21.5h84c11.9,0,21.5,9.6,21.5,21.5l0,0
			C394.1,966.4,384.5,976,372.6,976z"/>
	</g>
	<g id="BottomSecondForm_1_" class="st1">
		<path class="st2" d="M372.6,1019h-84c-11.9,0-21.5-9.6-21.5-21.5l0,0c0-11.9,9.6-21.5,21.5-21.5h84c11.9,0,21.5,9.6,21.5,21.5l0,0
			C394.1,1009.4,384.5,1019,372.6,1019z"/>
	</g>
	<g class="st1">
		<path class="st6" d="M533.6,493.4c-1.8-11.3-4-22.3-6.5-33.1l-171.4-2l156.2-49.6C475.6,308.4,408,241.1,330.6,241.1
			c-115.7,0-209.5,150.5-209.5,336.1s93.8,336.1,209.5,336.1s209.5-150.5,209.5-336.1c0-12.9-0.5-25.7-1.4-38.2l-143.5-1.7
			L533.6,493.4z"/>
		<g>
			<path class="st2" d="M538.8,539c0.9,12.5,1.4,25.3,1.4,38.2c0,185.6-93.8,336.1-209.5,336.1S121.1,762.8,121.1,577.2
				s93.8-336.1,209.5-336.1c77.4,0,145,67.4,181.3,167.5l21.2-6.7C494.3,286.4,418.2,208,330.6,208c-127,0-230,165.2-230,369
				s103,369,230,369s230-165.2,230-369c0-12.8-0.4-25.4-1.2-37.8L538.8,539z"/>
		</g>
		<g>
			<path class="st2" d="M533.6,493.4l20.2-6.4c-1.4-9-3-17.8-4.8-26.5l-21.8-0.3C529.6,471,531.8,482.1,533.6,493.4z"/>
		</g>
		<path class="st7" d="M527.1,460.3c-4.2-18-9.3-35.3-15.2-51.6l-156.2,49.6L527.1,460.3z"/>
		<path class="st7" d="M527.1,460.3l21.8,0.3c-4.2-20.4-9.5-40-15.8-58.6l-21.2,6.7C517.8,425,522.9,442.3,527.1,460.3z"/>
		<path class="st7" d="M395.3,537.3l143.5,1.7c-1.1-15.5-2.8-30.8-5.2-45.6L395.3,537.3z"/>
		<path class="st7" d="M538.8,539l20.7,0.2c-1.1-17.8-3.1-35.3-5.7-52.3l-20.2,6.4C535.9,508.2,537.7,523.4,538.8,539z"/>
	</g>
	<g id="Cross_2_" class="st1">
		<g>
			<rect id="Left_2_" x="891.6" y="721.5" width="12.7" height="103.6"/>
			<rect id="Right_2_" x="922.1" y="721.5" width="12.7" height="103.6"/>
		</g>
		<g>
			
				<rect id="Top_2_" x="906.9" y="706" transform="matrix(6.123234e-17 -1 1 6.123234e-17 155.4146 1670.9768)" width="12.7" height="103.6"/>
			
				<rect id="Bottom_2_" x="906.9" y="736.9" transform="matrix(6.123234e-17 -1 1 6.123234e-17 124.4593 1701.9321)" width="12.7" height="103.6"/>
		</g>
	</g>
</g>
<g id="InkMachineBottom" class="st0">
	<rect id="Bottom_x5F_Rectangle_1_" y="889" class="st8" width="1920" height="165"/>
	<rect id="Top_x5F_Rectangle" y="785" class="st8" width="1493" height="104"/>
	<circle id="Nail_1_" class="st9" cx="1706" cy="972" r="36"/>
</g>
<g id="InkMachineTop" class="st0">
	
		<rect id="Top_x5F_Rectangle_1_" x="0" y="33" transform="matrix(-1 3.267949e-07 -3.267949e-07 -1 1920 230.9992)" class="st8" width="1920" height="165"/>
	
		<rect id="Bottom_x5F_Rectangle" x="0" y="198" transform="matrix(-1 3.267949e-07 -3.267949e-07 -1 1493.0001 499.9991)" class="st8" width="1493" height="104"/>
	<circle id="Nail" class="st9" cx="1706" cy="115" r="36"/>
</g>
<g id="Liquid" class="st0">
	<path class="st10" d="M46.5,1070L46.5,1070c-15.7,0-28.5-12.8-28.5-28.5V38.5C18,22.8,30.8,10,46.5,10h0C62.2,10,75,22.8,75,38.5
		v1003C75,1057.2,62.2,1070,46.5,1070z"/>
</g>
</svg>
